<svg version="1.1" id="Layer_1" xmlns="http://www.w3.org/2000/svg" xmlns:xlink="http://www.w3.org/1999/xlink" x="0px" y="0px"
	 width="100%" viewBox="0 0 2100 1500" enable-background="new 0 0 2100 1500" xml:space="preserve">
<path fill="#FFFFFF" opacity="1.000000" stroke="none" 
	d="
M1480.000000,1501.000000 
	C986.666687,1501.000000 493.833344,1501.000000 1.000000,1501.000000 
	C1.000000,1001.000000 1.000000,501.000000 1.000000,1.000000 
	C701.000000,1.000000 1401.000000,1.000000 2101.000000,1.000000 
	C2101.000000,501.000000 2101.000000,1001.000000 2101.000000,1501.000000 
	C1894.166626,1501.000000 1687.333374,1501.000000 1480.000000,1501.000000 
M696.996277,526.500000 
	C696.986511,620.321411 697.080444,714.143005 696.834290,807.963806 
	C696.803833,819.565063 695.592224,831.259399 693.806946,842.736267 
	C691.384827,858.306519 684.875366,871.655212 669.456970,878.699463 
	C669.322205,878.761108 669.389893,879.265991 669.365234,879.540161 
	C703.621460,879.540161 737.875488,879.540161 772.129456,879.540161 
	C761.581909,874.164001 754.070374,866.133789 751.152954,855.052551 
	C748.252319,844.034790 745.521362,832.620178 745.267090,821.322205 
	C744.412476,783.345093 744.692017,745.342529 744.559082,707.349609 
	C744.555298,706.274658 744.794678,705.198853 744.946594,703.902222 
	C745.788452,704.172791 746.316101,704.202820 746.654785,704.471252 
	C763.738220,718.012207 783.429382,725.083923 804.884094,727.176514 
	C857.566711,732.315369 910.274841,710.444214 935.908936,655.440918 
	C958.649536,606.646301 961.439331,555.352539 948.337463,503.714874 
	C933.476624,445.144135 890.252136,412.117676 841.893921,407.470337 
	C802.920593,403.724884 766.437500,420.455963 747.414734,455.935638 
	C746.850403,456.988251 746.146851,457.966248 745.508179,458.979034 
	C745.082947,458.896667 744.657654,458.814270 744.232422,458.731903 
	C744.232422,441.561859 744.232422,424.391846 744.232422,405.668762 
	C720.567688,421.162933 695.362671,427.741852 667.844543,430.959839 
	C682.293152,438.356140 687.095764,442.318420 690.720764,451.889954 
	C693.168640,458.353516 695.427063,465.253662 695.801147,472.066650 
	C696.777527,489.846039 696.671021,507.684875 696.996277,526.500000 
M1129.500000,1354.003540 
	C1139.942627,1354.003540 1150.385376,1354.003540 1160.828003,1354.003540 
	C1160.969727,1353.563599 1161.111328,1353.123779 1161.253052,1352.683838 
	C1142.159424,1345.776245 1135.132324,1330.280762 1132.353760,1312.167725 
	C1130.968994,1303.141846 1130.191772,1293.936768 1130.139038,1284.807129 
	C1129.899658,1243.314941 1130.013184,1201.820801 1130.014771,1160.327271 
	C1130.014893,1158.908936 1130.172241,1157.490723 1130.264771,1155.929443 
	C1146.905396,1155.929443 1163.072266,1156.202026 1179.226562,1155.868530 
	C1206.791748,1155.299805 1234.026733,1152.209717 1260.205688,1142.944458 
	C1288.282837,1133.007446 1311.461792,1116.890503 1325.417358,1089.672852 
	C1335.958618,1069.114502 1338.959717,1046.980713 1337.832031,1024.237427 
	C1335.571411,978.643433 1313.805298,946.714111 1270.835327,929.935425 
	C1244.869385,919.796448 1217.684204,916.360107 1190.102539,916.124329 
	C1145.112671,915.739685 1100.117432,915.985168 1055.124390,915.964783 
	C1053.893188,915.964233 1052.661987,915.964722 1051.430664,915.964722 
	C1051.862549,917.298523 1052.428955,917.803101 1053.086914,918.113464 
	C1063.201416,922.884888 1070.190674,930.873108 1072.749756,941.410095 
	C1075.751953,953.772217 1078.652588,966.556030 1078.717773,979.171753 
	C1079.237915,1079.819702 1079.179810,1180.471558 1078.985229,1281.121460 
	C1078.961914,1293.210083 1077.733154,1305.399780 1075.866333,1317.355591 
	C1073.485107,1332.606689 1066.773804,1345.513550 1051.821411,1352.474854 
	C1051.561035,1352.595947 1051.560303,1353.274780 1051.348145,1354.003540 
	C1077.233276,1354.003540 1102.866699,1354.003540 1129.500000,1354.003540 
M226.782883,284.796417 
	C196.346802,278.148224 165.726273,276.761932 135.002274,282.306152 
	C114.944458,285.925598 95.945221,292.644379 80.319672,306.228790 
	C51.268734,331.484894 44.921326,364.173126 51.788494,400.228271 
	C56.688473,425.954987 72.597321,445.166290 91.916962,461.801849 
	C110.550247,477.846405 131.573196,490.403229 152.546539,503.021332 
	C176.645782,517.520142 201.173203,531.384949 222.726044,549.702148 
	C245.767792,569.284790 262.688629,592.453369 265.555695,623.716125 
	C268.808197,659.181946 254.107193,692.328491 217.959427,708.506287 
	C205.512039,714.077026 192.381195,716.773682 178.757935,717.273560 
	C129.097397,719.095520 90.597656,699.679871 64.110519,657.243652 
	C54.548592,641.924133 47.462555,625.466125 41.363922,608.536072 
	C40.806988,606.989929 40.045483,605.517517 39.378975,604.010864 
	C38.952015,604.154724 38.525055,604.298523 38.098095,604.442383 
	C38.716938,608.132324 39.324589,611.824219 39.956387,615.512024 
	C45.068325,645.350159 50.213272,675.182617 55.257065,705.032288 
	C55.777271,708.110901 56.859577,709.874023 60.200962,710.713806 
	C75.181511,714.478760 89.971138,719.057922 105.034233,722.429260 
	C142.454987,730.804626 180.189453,733.730591 217.922333,724.865662 
	C265.257904,713.744690 297.945526,686.708008 308.458893,637.456421 
	C314.622559,608.581726 313.288208,580.159058 299.524200,553.266968 
	C288.476532,531.681946 271.991516,514.661194 252.197098,501.344849 
	C230.415970,486.691986 207.683487,473.429962 185.133057,459.950836 
	C163.838882,447.222595 142.111923,435.181824 123.897446,417.995728 
	C113.234436,407.934662 104.528732,396.492676 99.483582,382.549530 
	C88.833656,353.116669 96.886108,323.506226 120.311752,306.456787 
	C132.745865,297.407135 146.916855,292.795685 162.092392,291.567047 
	C200.388138,288.466553 233.571609,298.850281 258.864044,329.252319 
	C274.441101,347.976318 284.027130,369.853210 291.968384,392.581360 
	C292.513428,394.141266 293.175537,395.660278 293.783234,397.198303 
	C294.192535,397.079590 294.601807,396.960876 295.011078,396.842133 
	C294.917053,395.448181 294.959412,394.029205 294.708954,392.663971 
	C289.157623,362.402679 283.523254,332.156464 278.080872,301.875702 
	C277.578217,299.078888 276.331177,297.931610 273.835236,297.272400 
	C258.418610,293.200714 243.021194,289.056366 226.782883,284.796417 
M1563.516357,553.500244 
	C1563.516357,540.503235 1563.976440,527.484619 1563.366577,514.516357 
	C1562.903442,504.668427 1565.029053,495.786896 1569.648315,487.277863 
	C1571.233032,484.358765 1572.525757,481.281128 1574.108643,478.360870 
	C1582.517822,462.846649 1592.535889,448.658203 1607.179199,438.267578 
	C1632.367310,420.394623 1673.973755,421.076416 1690.094971,462.540802 
	C1696.572754,479.201477 1699.663330,496.563629 1699.877441,514.254517 
	C1700.415894,558.737488 1700.497070,603.228699 1700.356323,647.715393 
	C1700.318481,659.667664 1699.464722,671.702087 1697.850586,683.544128 
	C1695.589600,700.131531 1689.416992,714.744080 1672.995117,722.568237 
	C1672.823364,722.650146 1672.846069,723.140503 1672.715942,723.714111 
	C1706.089355,723.714111 1739.380371,723.714111 1773.051147,723.714111 
	C1772.571289,722.961670 1772.423950,722.435852 1772.086670,722.244080 
	C1761.348511,716.139771 1755.196655,706.427612 1753.085327,694.800171 
	C1750.599243,681.109070 1748.463501,667.156311 1748.258301,653.286133 
	C1747.627319,610.637695 1748.118042,567.973938 1747.909790,525.317383 
	C1747.815186,505.948883 1745.606934,486.789276 1739.903198,468.171478 
	C1722.990112,412.964661 1664.431885,388.726562 1615.460815,416.976135 
	C1591.721191,430.670593 1576.646851,451.933105 1566.003418,476.677582 
	C1565.361694,478.169495 1564.651855,479.632050 1563.973633,481.108246 
	C1563.635498,480.972382 1563.297363,480.836517 1562.959229,480.700653 
	C1562.283325,456.223358 1561.607422,431.746033 1560.898193,406.061615 
	C1538.193970,421.362244 1513.799927,428.171997 1487.071411,431.109650 
	C1488.532349,432.171326 1488.963989,432.670441 1489.501709,432.848389 
	C1500.492432,436.484650 1507.066772,444.440857 1510.981567,454.915802 
	C1515.124390,466.001495 1515.995972,477.592499 1515.996216,489.296417 
	C1515.997559,541.785278 1516.112305,594.274536 1515.905640,646.762573 
	C1515.861206,658.061096 1515.264038,669.432129 1513.843994,680.633179 
	C1511.620605,698.171326 1506.179688,714.190308 1488.469360,722.566284 
	C1488.304321,722.644348 1488.334595,723.135376 1488.237183,723.612305 
	C1521.559448,723.612305 1554.822144,723.612305 1588.084839,723.612305 
	C1575.473267,715.789124 1569.939819,703.702087 1567.243652,690.188293 
	C1565.492310,681.411255 1564.198486,672.393921 1564.080933,663.466125 
	C1563.602783,627.147949 1563.657715,590.822876 1563.516357,553.500244 
M421.001190,443.500000 
	C421.001190,431.062805 421.001190,418.625580 421.001190,405.031097 
	C396.615387,416.773376 371.428711,422.130554 345.097137,423.586548 
	C345.614075,424.842316 345.633453,425.052582 345.745605,425.132324 
	C346.142242,425.414429 346.539673,425.753113 346.991577,425.891327 
	C356.997314,428.951752 363.858978,435.796417 366.901825,445.375061 
	C369.889130,454.778931 372.720581,464.709229 372.879272,474.453125 
	C373.603638,518.932556 373.089874,563.430908 373.627380,607.915161 
	C373.801697,622.343689 375.150482,636.845032 377.175629,651.141113 
	C379.432892,667.075500 385.069122,682.054932 394.362976,695.396484 
	C409.547089,717.193481 431.246887,727.179871 457.039734,729.510925 
	C488.332916,732.339172 515.754089,724.165955 535.945740,699.084717 
	C543.664795,689.496521 548.926270,677.927307 555.275085,667.241455 
	C556.101501,665.850586 556.732117,664.343384 557.453491,662.890076 
	C557.797913,663.012207 558.142273,663.134277 558.486694,663.256409 
	C559.329468,685.448792 560.172180,707.641235 561.047241,730.683838 
	C583.730530,719.382507 607.585266,717.398193 633.012085,716.699463 
	C630.969727,715.164429 630.290344,714.430969 629.450806,714.056396 
	C617.744873,708.833130 611.434814,699.303528 607.928101,687.435608 
	C603.764709,673.345398 603.555420,658.851929 603.544495,644.366577 
	C603.485474,566.381104 603.518555,488.395660 603.507019,410.410217 
	C603.506836,408.998962 603.346680,407.587677 603.203064,405.217438 
	C578.998535,416.702545 553.951172,422.229248 527.872009,424.009705 
	C528.477356,425.094360 529.015198,425.731964 529.687561,425.944885 
	C540.255798,429.292114 546.390930,436.978363 550.268005,446.877899 
	C554.836426,458.542725 555.981628,470.762939 555.986877,483.142303 
	C556.008667,534.799316 556.000732,586.456360 555.978088,638.113403 
	C555.977356,639.757874 556.015869,641.509766 555.500488,643.030090 
	C549.781250,659.903625 541.921448,675.620178 529.288696,688.455200 
	C513.122375,704.880432 493.857391,712.505554 470.822968,706.961060 
	C452.372925,702.520081 440.959686,689.586914 433.125122,673.164490 
	C423.600006,653.198425 421.031525,631.792358 421.015717,609.969116 
	C420.975769,554.812744 421.001648,499.656372 421.001190,443.500000 
M1554.228882,1064.274902 
	C1542.582764,1052.070679 1528.098877,1044.842896 1511.919678,1041.134033 
	C1467.370239,1030.921509 1425.778198,1039.951294 1386.274292,1061.340454 
	C1384.852783,1062.110107 1383.552002,1064.298462 1383.358521,1065.960938 
	C1380.798706,1087.957642 1378.437988,1109.977783 1376.065796,1131.996216 
	C1375.902710,1133.509888 1376.044434,1135.056274 1376.044434,1136.587524 
	C1376.520264,1136.688477 1376.995972,1136.789551 1377.471802,1136.890503 
	C1378.007690,1135.525391 1378.603760,1134.180298 1379.069702,1132.791748 
	C1382.079590,1123.823730 1384.470825,1114.595337 1388.156860,1105.916138 
	C1401.966553,1073.398193 1424.243774,1051.067139 1461.234619,1047.439087 
	C1490.335693,1044.584961 1513.774414,1054.953979 1525.325684,1084.437866 
	C1528.450073,1092.412598 1531.118896,1100.966187 1531.774780,1109.426392 
	C1533.252808,1128.490234 1533.348267,1147.661499 1533.980103,1166.789917 
	C1534.019897,1167.993164 1533.833130,1169.204102 1533.722412,1170.845825 
	C1504.850342,1155.856079 1474.932617,1152.561401 1443.961914,1159.098145 
	C1410.566528,1166.146606 1383.700317,1182.898193 1367.624878,1213.959717 
	C1355.104858,1238.151367 1352.245117,1264.059082 1356.980469,1290.697388 
	C1361.898193,1318.361938 1377.207764,1338.363159 1402.864868,1350.165283 
	C1418.890869,1357.537231 1435.867554,1360.142456 1453.380981,1359.996094 
	C1490.962769,1359.682007 1522.426392,1337.404785 1535.060791,1302.123779 
	C1535.557739,1300.735840 1536.167236,1299.388428 1536.724243,1298.022095 
	C1537.062012,1298.141479 1537.399902,1298.260864 1537.737671,1298.380371 
	C1539.197510,1319.046753 1540.657349,1339.713135 1542.170898,1361.140015 
	C1563.117554,1347.913452 1586.429932,1347.308472 1609.571655,1345.925537 
	C1609.352417,1344.993164 1609.368652,1344.768799 1609.270386,1344.692627 
	C1608.761353,1344.298828 1608.266968,1343.843994 1607.688599,1343.588135 
	C1596.554810,1338.659790 1589.470459,1329.950928 1586.598511,1318.481079 
	C1584.190918,1308.866211 1582.202881,1298.866455 1582.070312,1289.009766 
	C1581.485107,1245.520874 1581.815796,1202.020508 1581.413330,1158.527954 
	C1581.296631,1145.903076 1580.536865,1133.197510 1578.852539,1120.693115 
	C1576.056396,1099.931030 1569.334351,1080.579590 1554.228882,1064.274902 
M1219.520386,590.500244 
	C1219.519653,569.505493 1219.553833,548.510620 1219.507080,527.515930 
	C1219.468506,510.158783 1218.345947,492.911530 1214.013184,476.003296 
	C1206.773193,447.749725 1191.423584,426.256134 1163.429810,415.343933 
	C1148.995483,409.717285 1133.873291,407.622833 1118.500854,407.074188 
	C1085.687988,405.903046 1055.454834,415.096802 1026.558105,429.866089 
	C1022.816406,431.778503 1021.372253,434.109222 1020.961914,438.208252 
	C1018.922852,458.579803 1016.532227,478.915985 1014.344910,499.273132 
	C1014.084717,501.694580 1014.309570,504.168182 1014.309570,506.617584 
	C1014.763245,506.683105 1015.216980,506.748596 1015.670654,506.814087 
	C1016.168335,505.358826 1016.673828,503.906158 1017.162231,502.447845 
	C1020.115662,493.630707 1022.497498,484.571533 1026.116699,476.036987 
	C1039.902710,443.527161 1062.129395,421.483215 1099.091553,417.375549 
	C1130.853149,413.845856 1154.912476,428.069885 1164.773926,458.507263 
	C1168.372925,469.615509 1170.451904,481.495422 1171.261963,493.159576 
	C1172.348755,508.807800 1171.531250,524.588257 1171.531250,540.448303 
	C1170.940430,540.275208 1170.447998,540.210327 1170.031006,539.997437 
	C1141.893555,525.628174 1112.232056,522.626221 1081.659302,529.139893 
	C1048.505493,536.203552 1021.675171,552.875916 1005.737305,583.779297 
	C992.426575,609.588684 989.671509,637.115051 995.986633,665.339417 
	C1001.927124,691.889160 1018.013489,710.333191 1042.922729,721.088196 
	C1058.619385,727.865417 1075.145264,730.241150 1092.133423,730.000671 
	C1129.147095,729.476807 1160.467163,707.163147 1172.995850,672.381226 
	C1173.516602,670.935913 1174.111328,669.517334 1174.671509,668.086304 
	C1175.019043,668.145813 1175.366455,668.205383 1175.713989,668.264893 
	C1177.185791,688.989563 1178.657715,709.714172 1180.182861,731.189087 
	C1201.264893,717.833374 1224.587524,717.288818 1247.697510,715.432251 
	C1246.991943,714.370300 1246.363892,713.861328 1245.650879,713.542480 
	C1234.927856,708.745850 1227.897583,700.529297 1224.959717,689.354858 
	C1222.690674,680.724731 1220.532837,671.813782 1220.239990,662.964294 
	C1219.452026,639.161072 1219.689819,615.323975 1219.520386,590.500244 
M1811.330811,658.041199 
	C1816.920898,690.644226 1835.257935,712.615295 1866.440308,723.642456 
	C1880.227905,728.518188 1894.566650,730.228699 1909.174194,730.010742 
	C1946.152466,729.458862 1977.521851,707.108276 1990.024292,672.320618 
	C1990.538696,670.889038 1991.150391,669.492432 1991.716797,668.079590 
	C1992.050171,668.149292 1992.383423,668.218994 1992.716797,668.288696 
	C1994.188599,689.017395 1995.660522,709.746033 1997.181519,731.166565 
	C2018.290771,717.883667 2041.588623,717.244446 2064.696289,715.424500 
	C2063.964844,714.333191 2063.324707,713.827515 2062.601807,713.507751 
	C2051.833008,708.742920 2044.842651,700.432068 2041.905396,689.305115 
	C2039.544678,680.362244 2037.336182,671.070740 2037.199219,661.901917 
	C2036.566895,619.585632 2036.786011,577.257385 2036.466553,534.935181 
	C2036.373657,522.621216 2035.929932,510.277222 2034.887817,498.011505 
	C2033.642578,483.357574 2030.186157,469.119598 2023.822388,455.760406 
	C2008.805786,424.236664 1981.647095,411.718597 1948.849365,407.999847 
	C1914.024536,404.051361 1881.484253,411.744965 1850.130249,426.516663 
	C1842.386475,430.164948 1837.690308,434.026550 1837.161865,443.752960 
	C1836.106689,463.172180 1833.193359,482.489807 1831.089355,501.853943 
	C1830.917603,503.433716 1831.066772,505.048309 1831.066772,506.646729 
	C1831.603638,506.696198 1832.140625,506.745667 1832.677490,506.795105 
	C1833.146484,505.473877 1833.645264,504.162323 1834.079712,502.829803 
	C1836.756470,494.621429 1838.911743,486.200806 1842.173950,478.232971 
	C1855.884644,444.746338 1878.039307,421.258362 1916.189575,417.459656 
	C1946.312134,414.460297 1969.872070,425.817902 1981.046509,456.248413 
	C1983.775757,463.680725 1986.240479,471.553253 1986.804688,479.369415 
	C1988.169678,498.277222 1988.345215,517.270996 1988.989380,536.230530 
	C1989.036499,537.615295 1988.995728,539.003052 1988.995728,540.647888 
	C1987.846436,540.268555 1987.360107,540.174072 1986.935181,539.958435 
	C1957.429443,524.983459 1926.479858,522.351440 1894.669556,530.085022 
	C1859.084229,538.736328 1832.311157,558.655273 1818.292847,593.373779 
	C1810.014404,613.876770 1808.391846,635.336609 1811.330811,658.041199 
M1717.517212,1245.500122 
	C1717.517212,1123.619385 1717.517212,1001.738770 1717.517212,878.667236 
	C1692.896118,890.143555 1667.911011,895.294678 1641.271484,897.100830 
	C1642.522217,898.194397 1642.813721,898.649536 1643.203369,898.760986 
	C1655.924805,902.397766 1663.218994,911.491882 1665.754272,923.744385 
	C1668.099609,935.078857 1669.760132,946.784485 1669.793213,958.332153 
	C1670.098999,1064.987305 1670.043945,1171.643799 1669.906006,1278.299561 
	C1669.891968,1289.098511 1669.192505,1299.964966 1667.842529,1310.678223 
	C1665.627319,1328.257568 1660.031982,1344.162476 1642.472290,1352.649292 
	C1642.327271,1352.719238 1642.390381,1353.219849 1642.342773,1353.638184 
	C1676.635254,1353.638184 1710.910645,1353.638184 1746.328491,1353.638184 
	C1744.616821,1352.476685 1743.903320,1351.871826 1743.091675,1351.460449 
	C1734.359131,1347.034424 1728.049438,1340.176514 1724.993042,1331.034058 
	C1722.325195,1323.054077 1719.729126,1314.722046 1719.217163,1306.415039 
	C1717.988647,1286.484131 1718.003784,1266.476807 1717.517212,1245.500122 
M1377.698486,718.938660 
	C1371.381714,714.003113 1366.920532,707.700134 1363.778931,700.362732 
	C1358.589355,688.241638 1356.196289,675.436646 1356.095825,662.430969 
	C1355.672607,607.603943 1355.666626,552.773621 1355.539917,497.944489 
	C1355.536499,496.463043 1355.642822,494.892548 1356.123901,493.511993 
	C1363.131836,473.401093 1374.564697,456.609070 1393.225464,445.591858 
	C1418.498169,430.671051 1446.056152,435.592957 1464.873535,458.097534 
	C1465.335815,458.650421 1465.987671,459.044769 1466.104980,459.142242 
	C1466.104980,444.409393 1466.137329,429.640869 1466.018188,414.873627 
	C1466.011719,414.058197 1464.912964,412.880432 1464.046021,412.496796 
	C1434.062378,399.230011 1406.054932,399.423828 1381.315918,427.621643 
	C1369.346313,441.264679 1362.131348,457.468231 1357.029053,474.712250 
	C1356.709595,475.792267 1356.174072,476.808319 1355.739014,477.854156 
	C1355.471313,477.764404 1355.203613,477.674683 1354.935913,477.584961 
	C1354.276733,454.151154 1353.617676,430.717346 1352.922852,406.017639 
	C1330.542603,421.579926 1305.873413,427.992859 1279.652954,430.944427 
	C1280.418091,431.875427 1280.645630,432.441925 1281.018311,432.563812 
	C1294.024170,436.816528 1301.363647,446.471405 1304.189453,459.123840 
	C1306.418823,469.105560 1307.764771,479.494293 1307.833984,489.713501 
	C1308.186523,541.877136 1308.113892,594.044983 1307.905518,646.210144 
	C1307.859619,657.677429 1307.276855,669.218140 1305.843750,680.586731 
	C1303.633179,698.124329 1298.225952,714.171448 1280.484497,722.536072 
	C1280.312988,722.617004 1280.333130,723.104614 1280.208252,723.640747 
	C1314.560181,723.640747 1348.835815,723.640747 1384.432373,723.640747 
	C1381.689697,721.728149 1379.994629,720.546143 1377.698486,718.938660 
z"/>
<path fill="#FE0202" opacity="1.000000" stroke="none" 
	d="
M696.996277,526.000000 
	C696.671021,507.684875 696.777527,489.846039 695.801147,472.066650 
	C695.427063,465.253662 693.168640,458.353516 690.720764,451.889954 
	C687.095764,442.318420 682.293152,438.356140 667.844543,430.959839 
	C695.362671,427.741852 720.567688,421.162933 744.232422,405.668762 
	C744.232422,424.391846 744.232422,441.561859 744.232422,458.731903 
	C744.657654,458.814270 745.082947,458.896667 745.508179,458.979034 
	C746.146851,457.966248 746.850403,456.988251 747.414734,455.935638 
	C766.437500,420.455963 802.920593,403.724884 841.893921,407.470337 
	C890.252136,412.117676 933.476624,445.144135 948.337463,503.714874 
	C961.439331,555.352539 958.649536,606.646301 935.908936,655.440918 
	C910.274841,710.444214 857.566711,732.315369 804.884094,727.176514 
	C783.429382,725.083923 763.738220,718.012207 746.654785,704.471252 
	C746.316101,704.202820 745.788452,704.172791 744.946594,703.902222 
	C744.794678,705.198853 744.555298,706.274658 744.559082,707.349609 
	C744.692017,745.342529 744.412476,783.345093 745.267090,821.322205 
	C745.521362,832.620178 748.252319,844.034790 751.152954,855.052551 
	C754.070374,866.133789 761.581909,874.164001 772.129456,879.540161 
	C737.875488,879.540161 703.621460,879.540161 669.365234,879.540161 
	C669.389893,879.265991 669.322205,878.761108 669.456970,878.699463 
	C684.875366,871.655212 691.384827,858.306519 693.806946,842.736267 
	C695.592224,831.259399 696.803833,819.565063 696.834290,807.963806 
	C697.080444,714.143005 696.986511,620.321411 696.996277,526.000000 
M900.936523,533.767456 
	C898.287720,521.264893 896.434448,508.526917 892.818604,496.310577 
	C886.044067,473.422455 874.869995,452.971954 855.509766,438.016815 
	C822.450867,412.480011 780.240540,420.604767 759.049927,456.598328 
	C749.288025,473.179535 744.717346,491.366730 744.621826,510.442749 
	C744.358337,563.088257 744.504944,615.735962 744.629272,668.382568 
	C744.635559,671.059509 745.487061,673.973267 746.726929,676.372803 
	C767.318359,716.225708 830.913269,733.929810 869.076416,689.051636 
	C882.983398,672.697693 891.065247,653.531433 895.981384,632.921753 
	C903.715088,600.500000 904.606079,567.685120 900.936523,533.767456 
z"/>
<path fill="#FE0102" opacity="1.000000" stroke="none" 
	d="
M1129.000000,1354.003540 
	C1102.866699,1354.003540 1077.233276,1354.003540 1051.348145,1354.003540 
	C1051.560303,1353.274780 1051.561035,1352.595947 1051.821411,1352.474854 
	C1066.773804,1345.513550 1073.485107,1332.606689 1075.866333,1317.355591 
	C1077.733154,1305.399780 1078.961914,1293.210083 1078.985229,1281.121460 
	C1079.179810,1180.471558 1079.237915,1079.819702 1078.717773,979.171753 
	C1078.652588,966.556030 1075.751953,953.772217 1072.749756,941.410095 
	C1070.190674,930.873108 1063.201416,922.884888 1053.086914,918.113464 
	C1052.428955,917.803101 1051.862549,917.298523 1051.430664,915.964722 
	C1052.661987,915.964722 1053.893188,915.964233 1055.124390,915.964783 
	C1100.117432,915.985168 1145.112671,915.739685 1190.102539,916.124329 
	C1217.684204,916.360107 1244.869385,919.796448 1270.835327,929.935425 
	C1313.805298,946.714111 1335.571411,978.643433 1337.832031,1024.237427 
	C1338.959717,1046.980713 1335.958618,1069.114502 1325.417358,1089.672852 
	C1311.461792,1116.890503 1288.282837,1133.007446 1260.205688,1142.944458 
	C1234.026733,1152.209717 1206.791748,1155.299805 1179.226562,1155.868530 
	C1163.072266,1156.202026 1146.905396,1155.929443 1130.264771,1155.929443 
	C1130.172241,1157.490723 1130.014893,1158.908936 1130.014771,1160.327271 
	C1130.013184,1201.820801 1129.899658,1243.314941 1130.139038,1284.807129 
	C1130.191772,1293.936768 1130.968994,1303.141846 1132.353760,1312.167725 
	C1135.132324,1330.280762 1142.159424,1345.776245 1161.253052,1352.683838 
	C1161.111328,1353.123779 1160.969727,1353.563599 1160.828003,1354.003540 
	C1150.385376,1354.003540 1139.942627,1354.003540 1129.000000,1354.003540 
M1133.705688,929.110596 
	C1129.177246,928.247925 1130.009644,931.468262 1130.009277,934.001953 
	C1130.001221,1002.617249 1130.000854,1071.232544 1129.999146,1139.847900 
	C1129.999146,1141.124023 1129.999023,1142.400024 1129.999023,1144.935059 
	C1153.763672,1143.939331 1177.217651,1144.688354 1200.152588,1141.592773 
	C1235.234253,1136.857788 1260.904053,1117.535156 1275.069824,1084.474243 
	C1285.999756,1058.965698 1287.609619,1032.302002 1283.336670,1005.173096 
	C1280.592529,987.750366 1274.057983,971.883362 1262.053711,958.682983 
	C1245.065186,940.001770 1222.951782,931.828064 1198.571289,930.239990 
	C1177.335083,928.856689 1155.972534,929.412292 1133.705688,929.110596 
z"/>
<path fill="#FE0202" opacity="1.000000" stroke="none" 
	d="
M227.200134,284.866302 
	C243.021194,289.056366 258.418610,293.200714 273.835236,297.272400 
	C276.331177,297.931610 277.578217,299.078888 278.080872,301.875702 
	C283.523254,332.156464 289.157623,362.402679 294.708954,392.663971 
	C294.959412,394.029205 294.917053,395.448181 295.011078,396.842133 
	C294.601807,396.960876 294.192535,397.079590 293.783234,397.198303 
	C293.175537,395.660278 292.513428,394.141266 291.968384,392.581360 
	C284.027130,369.853210 274.441101,347.976318 258.864044,329.252319 
	C233.571609,298.850281 200.388138,288.466553 162.092392,291.567047 
	C146.916855,292.795685 132.745865,297.407135 120.311752,306.456787 
	C96.886108,323.506226 88.833656,353.116669 99.483582,382.549530 
	C104.528732,396.492676 113.234436,407.934662 123.897446,417.995728 
	C142.111923,435.181824 163.838882,447.222595 185.133057,459.950836 
	C207.683487,473.429962 230.415970,486.691986 252.197098,501.344849 
	C271.991516,514.661194 288.476532,531.681946 299.524200,553.266968 
	C313.288208,580.159058 314.622559,608.581726 308.458893,637.456421 
	C297.945526,686.708008 265.257904,713.744690 217.922333,724.865662 
	C180.189453,733.730591 142.454987,730.804626 105.034233,722.429260 
	C89.971138,719.057922 75.181511,714.478760 60.200962,710.713806 
	C56.859577,709.874023 55.777271,708.110901 55.257065,705.032288 
	C50.213272,675.182617 45.068325,645.350159 39.956387,615.512024 
	C39.324589,611.824219 38.716938,608.132324 38.098095,604.442383 
	C38.525055,604.298523 38.952015,604.154724 39.378975,604.010864 
	C40.045483,605.517517 40.806988,606.989929 41.363922,608.536072 
	C47.462555,625.466125 54.548592,641.924133 64.110519,657.243652 
	C90.597656,699.679871 129.097397,719.095520 178.757935,717.273560 
	C192.381195,716.773682 205.512039,714.077026 217.959427,708.506287 
	C254.107193,692.328491 268.808197,659.181946 265.555695,623.716125 
	C262.688629,592.453369 245.767792,569.284790 222.726044,549.702148 
	C201.173203,531.384949 176.645782,517.520142 152.546539,503.021332 
	C131.573196,490.403229 110.550247,477.846405 91.916962,461.801849 
	C72.597321,445.166290 56.688473,425.954987 51.788494,400.228271 
	C44.921326,364.173126 51.268734,331.484894 80.319672,306.228790 
	C95.945221,292.644379 114.944458,285.925598 135.002274,282.306152 
	C165.726273,276.761932 196.346802,278.148224 227.200134,284.866302 
z"/>
<path fill="#FE0101" opacity="1.000000" stroke="none" 
	d="
M1563.516235,554.000244 
	C1563.657715,590.822876 1563.602783,627.147949 1564.080933,663.466125 
	C1564.198486,672.393921 1565.492310,681.411255 1567.243652,690.188293 
	C1569.939819,703.702087 1575.473267,715.789124 1588.084839,723.612305 
	C1554.822144,723.612305 1521.559448,723.612305 1488.237183,723.612305 
	C1488.334595,723.135376 1488.304321,722.644348 1488.469360,722.566284 
	C1506.179688,714.190308 1511.620605,698.171326 1513.843994,680.633179 
	C1515.264038,669.432129 1515.861206,658.061096 1515.905640,646.762573 
	C1516.112305,594.274536 1515.997559,541.785278 1515.996216,489.296417 
	C1515.995972,477.592499 1515.124390,466.001495 1510.981567,454.915802 
	C1507.066772,444.440857 1500.492432,436.484650 1489.501709,432.848389 
	C1488.963989,432.670441 1488.532349,432.171326 1487.071411,431.109650 
	C1513.799927,428.171997 1538.193970,421.362244 1560.898193,406.061615 
	C1561.607422,431.746033 1562.283325,456.223358 1562.959229,480.700653 
	C1563.297363,480.836517 1563.635498,480.972382 1563.973633,481.108246 
	C1564.651855,479.632050 1565.361694,478.169495 1566.003418,476.677582 
	C1576.646851,451.933105 1591.721191,430.670593 1615.460815,416.976135 
	C1664.431885,388.726562 1722.990112,412.964661 1739.903198,468.171478 
	C1745.606934,486.789276 1747.815186,505.948883 1747.909790,525.317383 
	C1748.118042,567.973938 1747.627319,610.637695 1748.258301,653.286133 
	C1748.463501,667.156311 1750.599243,681.109070 1753.085327,694.800171 
	C1755.196655,706.427612 1761.348511,716.139771 1772.086670,722.244080 
	C1772.423950,722.435852 1772.571289,722.961670 1773.051147,723.714111 
	C1739.380371,723.714111 1706.089355,723.714111 1672.715942,723.714111 
	C1672.846069,723.140503 1672.823364,722.650146 1672.995117,722.568237 
	C1689.416992,714.744080 1695.589600,700.131531 1697.850586,683.544128 
	C1699.464722,671.702087 1700.318481,659.667664 1700.356323,647.715393 
	C1700.497070,603.228699 1700.415894,558.737488 1699.877441,514.254517 
	C1699.663330,496.563629 1696.572754,479.201477 1690.094971,462.540802 
	C1673.973755,421.076416 1632.367310,420.394623 1607.179199,438.267578 
	C1592.535889,448.658203 1582.517822,462.846649 1574.108643,478.360870 
	C1572.525757,481.281128 1571.233032,484.358765 1569.648315,487.277863 
	C1565.029053,495.786896 1562.903442,504.668427 1563.366577,514.516357 
	C1563.976440,527.484619 1563.516357,540.503235 1563.516235,554.000244 
z"/>
<path fill="#FE0101" opacity="1.000000" stroke="none" 
	d="
M421.001190,444.000000 
	C421.001648,499.656372 420.975769,554.812744 421.015717,609.969116 
	C421.031525,631.792358 423.600006,653.198425 433.125122,673.164490 
	C440.959686,689.586914 452.372925,702.520081 470.822968,706.961060 
	C493.857391,712.505554 513.122375,704.880432 529.288696,688.455200 
	C541.921448,675.620178 549.781250,659.903625 555.500488,643.030090 
	C556.015869,641.509766 555.977356,639.757874 555.978088,638.113403 
	C556.000732,586.456360 556.008667,534.799316 555.986877,483.142303 
	C555.981628,470.762939 554.836426,458.542725 550.268005,446.877899 
	C546.390930,436.978363 540.255798,429.292114 529.687561,425.944885 
	C529.015198,425.731964 528.477356,425.094360 527.872009,424.009705 
	C553.951172,422.229248 578.998535,416.702545 603.203064,405.217438 
	C603.346680,407.587677 603.506836,408.998962 603.507019,410.410217 
	C603.518555,488.395660 603.485474,566.381104 603.544495,644.366577 
	C603.555420,658.851929 603.764709,673.345398 607.928101,687.435608 
	C611.434814,699.303528 617.744873,708.833130 629.450806,714.056396 
	C630.290344,714.430969 630.969727,715.164429 633.012085,716.699463 
	C607.585266,717.398193 583.730530,719.382507 561.047241,730.683838 
	C560.172180,707.641235 559.329468,685.448792 558.486694,663.256409 
	C558.142273,663.134277 557.797913,663.012207 557.453491,662.890076 
	C556.732117,664.343384 556.101501,665.850586 555.275085,667.241455 
	C548.926270,677.927307 543.664795,689.496521 535.945740,699.084717 
	C515.754089,724.165955 488.332916,732.339172 457.039734,729.510925 
	C431.246887,727.179871 409.547089,717.193481 394.362976,695.396484 
	C385.069122,682.054932 379.432892,667.075500 377.175629,651.141113 
	C375.150482,636.845032 373.801697,622.343689 373.627380,607.915161 
	C373.089874,563.430908 373.603638,518.932556 372.879272,474.453125 
	C372.720581,464.709229 369.889130,454.778931 366.901825,445.375061 
	C363.858978,435.796417 356.997314,428.951752 346.991577,425.891327 
	C346.539673,425.753113 346.142242,425.414429 345.745605,425.132324 
	C345.633453,425.052582 345.614075,424.842316 345.097137,423.586548 
	C371.428711,422.130554 396.615387,416.773376 421.001190,405.031097 
	C421.001190,418.625580 421.001190,431.062805 421.001190,444.000000 
z"/>
<path fill="#FE0202" opacity="1.000000" stroke="none" 
	d="
M1554.470459,1064.531250 
	C1569.334351,1080.579590 1576.056396,1099.931030 1578.852539,1120.693115 
	C1580.536865,1133.197510 1581.296631,1145.903076 1581.413330,1158.527954 
	C1581.815796,1202.020508 1581.485107,1245.520874 1582.070312,1289.009766 
	C1582.202881,1298.866455 1584.190918,1308.866211 1586.598511,1318.481079 
	C1589.470459,1329.950928 1596.554810,1338.659790 1607.688599,1343.588135 
	C1608.266968,1343.843994 1608.761353,1344.298828 1609.270386,1344.692627 
	C1609.368652,1344.768799 1609.352417,1344.993164 1609.571655,1345.925537 
	C1586.429932,1347.308472 1563.117554,1347.913452 1542.170898,1361.140015 
	C1540.657349,1339.713135 1539.197510,1319.046753 1537.737671,1298.380371 
	C1537.399902,1298.260864 1537.062012,1298.141479 1536.724243,1298.022095 
	C1536.167236,1299.388428 1535.557739,1300.735840 1535.060791,1302.123779 
	C1522.426392,1337.404785 1490.962769,1359.682007 1453.380981,1359.996094 
	C1435.867554,1360.142456 1418.890869,1357.537231 1402.864868,1350.165283 
	C1377.207764,1338.363159 1361.898193,1318.361938 1356.980469,1290.697388 
	C1352.245117,1264.059082 1355.104858,1238.151367 1367.624878,1213.959717 
	C1383.700317,1182.898193 1410.566528,1166.146606 1443.961914,1159.098145 
	C1474.932617,1152.561401 1504.850342,1155.856079 1533.722412,1170.845825 
	C1533.833130,1169.204102 1534.019897,1167.993164 1533.980103,1166.789917 
	C1533.348267,1147.661499 1533.252808,1128.490234 1531.774780,1109.426392 
	C1531.118896,1100.966187 1528.450073,1092.412598 1525.325684,1084.437866 
	C1513.774414,1054.953979 1490.335693,1044.584961 1461.234619,1047.439087 
	C1424.243774,1051.067139 1401.966553,1073.398193 1388.156860,1105.916138 
	C1384.470825,1114.595337 1382.079590,1123.823730 1379.069702,1132.791748 
	C1378.603760,1134.180298 1378.007690,1135.525391 1377.471802,1136.890503 
	C1376.995972,1136.789551 1376.520264,1136.688477 1376.044434,1136.587524 
	C1376.044434,1135.056274 1375.902710,1133.509888 1376.065796,1131.996216 
	C1378.437988,1109.977783 1380.798706,1087.957642 1383.358521,1065.960938 
	C1383.552002,1064.298462 1384.852783,1062.110107 1386.274292,1061.340454 
	C1425.778198,1039.951294 1467.370239,1030.921509 1511.919678,1041.134033 
	C1528.098877,1044.842896 1542.582764,1052.070679 1554.470459,1064.531250 
M1529.962402,1289.323242 
	C1531.307251,1281.985107 1533.688599,1274.664551 1533.812134,1267.305908 
	C1534.273682,1239.822144 1533.943970,1212.325806 1534.070068,1184.834961 
	C1534.083374,1181.915283 1533.059204,1180.428467 1530.669800,1178.958496 
	C1494.201294,1156.521973 1447.734375,1165.494141 1423.480713,1200.757568 
	C1402.797363,1230.829834 1398.505737,1264.450806 1408.379272,1299.075684 
	C1418.279053,1333.792603 1454.349243,1350.370972 1487.684204,1336.847290 
	C1509.134033,1328.145386 1522.110229,1311.415039 1529.962402,1289.323242 
z"/>
<path fill="#FE0202" opacity="1.000000" stroke="none" 
	d="
M1219.520386,591.000244 
	C1219.689819,615.323975 1219.452026,639.161072 1220.239990,662.964294 
	C1220.532837,671.813782 1222.690674,680.724731 1224.959717,689.354858 
	C1227.897583,700.529297 1234.927856,708.745850 1245.650879,713.542480 
	C1246.363892,713.861328 1246.991943,714.370300 1247.697510,715.432251 
	C1224.587524,717.288818 1201.264893,717.833374 1180.182861,731.189087 
	C1178.657715,709.714172 1177.185791,688.989563 1175.713989,668.264893 
	C1175.366455,668.205383 1175.019043,668.145813 1174.671509,668.086304 
	C1174.111328,669.517334 1173.516602,670.935913 1172.995850,672.381226 
	C1160.467163,707.163147 1129.147095,729.476807 1092.133423,730.000671 
	C1075.145264,730.241150 1058.619385,727.865417 1042.922729,721.088196 
	C1018.013489,710.333191 1001.927124,691.889160 995.986633,665.339417 
	C989.671509,637.115051 992.426575,609.588684 1005.737305,583.779297 
	C1021.675171,552.875916 1048.505493,536.203552 1081.659302,529.139893 
	C1112.232056,522.626221 1141.893555,525.628174 1170.031006,539.997437 
	C1170.447998,540.210327 1170.940430,540.275208 1171.531250,540.448303 
	C1171.531250,524.588257 1172.348755,508.807800 1171.261963,493.159576 
	C1170.451904,481.495422 1168.372925,469.615509 1164.773926,458.507263 
	C1154.912476,428.069885 1130.853149,413.845856 1099.091553,417.375549 
	C1062.129395,421.483215 1039.902710,443.527161 1026.116699,476.036987 
	C1022.497498,484.571533 1020.115662,493.630707 1017.162231,502.447845 
	C1016.673828,503.906158 1016.168335,505.358826 1015.670654,506.814087 
	C1015.216980,506.748596 1014.763245,506.683105 1014.309570,506.617584 
	C1014.309570,504.168182 1014.084717,501.694580 1014.344910,499.273132 
	C1016.532227,478.915985 1018.922852,458.579803 1020.961914,438.208252 
	C1021.372253,434.109222 1022.816406,431.778503 1026.558105,429.866089 
	C1055.454834,415.096802 1085.687988,405.903046 1118.500854,407.074188 
	C1133.873291,407.622833 1148.995483,409.717285 1163.429810,415.343933 
	C1191.423584,426.256134 1206.773193,447.749725 1214.013184,476.003296 
	C1218.345947,492.911530 1219.468506,510.158783 1219.507080,527.515930 
	C1219.553833,548.510620 1219.519653,569.505493 1219.520386,591.000244 
M1106.888306,539.174377 
	C1087.398193,544.295349 1071.612671,555.031128 1060.647095,571.842529 
	C1041.053467,601.881592 1036.604248,634.868286 1046.327148,668.951233 
	C1056.644409,705.117859 1095.249146,721.716553 1129.142212,705.161499 
	C1157.038452,691.535583 1170.364014,667.360352 1171.731567,637.247742 
	C1172.977539,609.810852 1172.053223,582.272400 1171.868408,554.780151 
	C1171.855957,552.922974 1170.497925,550.308105 1168.954712,549.344666 
	C1149.999512,537.511230 1129.561646,533.927124 1106.888306,539.174377 
z"/>
<path fill="#FE0202" opacity="1.000000" stroke="none" 
	d="
M1811.251709,657.611755 
	C1808.391846,635.336609 1810.014404,613.876770 1818.292847,593.373779 
	C1832.311157,558.655273 1859.084229,538.736328 1894.669556,530.085022 
	C1926.479858,522.351440 1957.429443,524.983459 1986.935181,539.958435 
	C1987.360107,540.174072 1987.846436,540.268555 1988.995728,540.647888 
	C1988.995728,539.003052 1989.036499,537.615295 1988.989380,536.230530 
	C1988.345215,517.270996 1988.169678,498.277222 1986.804688,479.369415 
	C1986.240479,471.553253 1983.775757,463.680725 1981.046509,456.248413 
	C1969.872070,425.817902 1946.312134,414.460297 1916.189575,417.459656 
	C1878.039307,421.258362 1855.884644,444.746338 1842.173950,478.232971 
	C1838.911743,486.200806 1836.756470,494.621429 1834.079712,502.829803 
	C1833.645264,504.162323 1833.146484,505.473877 1832.677490,506.795105 
	C1832.140625,506.745667 1831.603638,506.696198 1831.066772,506.646729 
	C1831.066772,505.048309 1830.917603,503.433716 1831.089355,501.853943 
	C1833.193359,482.489807 1836.106689,463.172180 1837.161865,443.752960 
	C1837.690308,434.026550 1842.386475,430.164948 1850.130249,426.516663 
	C1881.484253,411.744965 1914.024536,404.051361 1948.849365,407.999847 
	C1981.647095,411.718597 2008.805786,424.236664 2023.822388,455.760406 
	C2030.186157,469.119598 2033.642578,483.357574 2034.887817,498.011505 
	C2035.929932,510.277222 2036.373657,522.621216 2036.466553,534.935181 
	C2036.786011,577.257385 2036.566895,619.585632 2037.199219,661.901917 
	C2037.336182,671.070740 2039.544678,680.362244 2041.905396,689.305115 
	C2044.842651,700.432068 2051.833008,708.742920 2062.601807,713.507751 
	C2063.324707,713.827515 2063.964844,714.333191 2064.696289,715.424500 
	C2041.588623,717.244446 2018.290771,717.883667 1997.181519,731.166565 
	C1995.660522,709.746033 1994.188599,689.017395 1992.716797,668.288696 
	C1992.383423,668.218994 1992.050171,668.149292 1991.716797,668.079590 
	C1991.150391,669.492432 1990.538696,670.889038 1990.024292,672.320618 
	C1977.521851,707.108276 1946.152466,729.458862 1909.174194,730.010742 
	C1894.566650,730.228699 1880.227905,728.518188 1866.440308,723.642456 
	C1835.257935,712.615295 1816.920898,690.644226 1811.251709,657.611755 
M1865.981567,594.568359 
	C1858.471924,616.276306 1856.556641,638.489258 1861.074219,660.993103 
	C1871.327515,712.066345 1921.274292,720.917419 1951.235474,702.650879 
	C1975.255371,688.006653 1987.524414,665.562134 1988.726562,638.030334 
	C1989.939087,610.256287 1989.044922,582.387817 1988.880859,554.561829 
	C1988.870605,552.827026 1987.638306,550.363159 1986.208374,549.482727 
	C1962.464355,534.862854 1937.474976,532.515381 1911.768921,543.419678 
	C1888.947632,553.100342 1874.871948,571.126770 1865.981567,594.568359 
z"/>
<path fill="#FE0101" opacity="1.000000" stroke="none" 
	d="
M1717.517090,1246.000244 
	C1718.003784,1266.476807 1717.988647,1286.484131 1719.217163,1306.415039 
	C1719.729126,1314.722046 1722.325195,1323.054077 1724.993042,1331.034058 
	C1728.049438,1340.176514 1734.359131,1347.034424 1743.091675,1351.460449 
	C1743.903320,1351.871826 1744.616821,1352.476685 1746.328491,1353.638184 
	C1710.910645,1353.638184 1676.635254,1353.638184 1642.342773,1353.638184 
	C1642.390381,1353.219849 1642.327271,1352.719238 1642.472290,1352.649292 
	C1660.031982,1344.162476 1665.627319,1328.257568 1667.842529,1310.678223 
	C1669.192505,1299.964966 1669.891968,1289.098511 1669.906006,1278.299561 
	C1670.043945,1171.643799 1670.098999,1064.987305 1669.793213,958.332153 
	C1669.760132,946.784485 1668.099609,935.078857 1665.754272,923.744385 
	C1663.218994,911.491882 1655.924805,902.397766 1643.203369,898.760986 
	C1642.813721,898.649536 1642.522217,898.194397 1641.271484,897.100830 
	C1667.911011,895.294678 1692.896118,890.143555 1717.517212,878.667236 
	C1717.517212,1001.738770 1717.517212,1123.619385 1717.517090,1246.000244 
z"/>
<path fill="#FE0101" opacity="1.000000" stroke="none" 
	d="
M1377.999023,719.151367 
	C1379.994629,720.546143 1381.689697,721.728149 1384.432373,723.640747 
	C1348.835815,723.640747 1314.560181,723.640747 1280.208252,723.640747 
	C1280.333130,723.104614 1280.312988,722.617004 1280.484497,722.536072 
	C1298.225952,714.171448 1303.633179,698.124329 1305.843750,680.586731 
	C1307.276855,669.218140 1307.859619,657.677429 1307.905518,646.210144 
	C1308.113892,594.044983 1308.186523,541.877136 1307.833984,489.713501 
	C1307.764771,479.494293 1306.418823,469.105560 1304.189453,459.123840 
	C1301.363647,446.471405 1294.024170,436.816528 1281.018311,432.563812 
	C1280.645630,432.441925 1280.418091,431.875427 1279.652954,430.944427 
	C1305.873413,427.992859 1330.542603,421.579926 1352.922852,406.017639 
	C1353.617676,430.717346 1354.276733,454.151154 1354.935913,477.584961 
	C1355.203613,477.674683 1355.471313,477.764404 1355.739014,477.854156 
	C1356.174072,476.808319 1356.709595,475.792267 1357.029053,474.712250 
	C1362.131348,457.468231 1369.346313,441.264679 1381.315918,427.621643 
	C1406.054932,399.423828 1434.062378,399.230011 1464.046021,412.496796 
	C1464.912964,412.880432 1466.011719,414.058197 1466.018188,414.873627 
	C1466.137329,429.640869 1466.104980,444.409393 1466.104980,459.142242 
	C1465.987671,459.044769 1465.335815,458.650421 1464.873535,458.097534 
	C1446.056152,435.592957 1418.498169,430.671051 1393.225464,445.591858 
	C1374.564697,456.609070 1363.131836,473.401093 1356.123901,493.511993 
	C1355.642822,494.892548 1355.536499,496.463043 1355.539917,497.944489 
	C1355.666626,552.773621 1355.672607,607.603943 1356.095825,662.430969 
	C1356.196289,675.436646 1358.589355,688.241638 1363.778931,700.362732 
	C1366.920532,707.700134 1371.381714,714.003113 1377.999023,719.151367 
z"/>
<path fill="#FFFEFE" opacity="1.000000" stroke="none" 
	d="
M900.970215,534.214600 
	C904.606079,567.685120 903.715088,600.500000 895.981384,632.921753 
	C891.065247,653.531433 882.983398,672.697693 869.076416,689.051636 
	C830.913269,733.929810 767.318359,716.225708 746.726929,676.372803 
	C745.487061,673.973267 744.635559,671.059509 744.629272,668.382568 
	C744.504944,615.735962 744.358337,563.088257 744.621826,510.442749 
	C744.717346,491.366730 749.288025,473.179535 759.049927,456.598328 
	C780.240540,420.604767 822.450867,412.480011 855.509766,438.016815 
	C874.869995,452.971954 886.044067,473.422455 892.818604,496.310577 
	C896.434448,508.526917 898.287720,521.264893 900.970215,534.214600 
z"/>
<path fill="#FFFEFE" opacity="1.000000" stroke="none" 
	d="
M1134.185791,929.110962 
	C1155.972534,929.412292 1177.335083,928.856689 1198.571289,930.239990 
	C1222.951782,931.828064 1245.065186,940.001770 1262.053711,958.682983 
	C1274.057983,971.883362 1280.592529,987.750366 1283.336670,1005.173096 
	C1287.609619,1032.302002 1285.999756,1058.965698 1275.069824,1084.474243 
	C1260.904053,1117.535156 1235.234253,1136.857788 1200.152588,1141.592773 
	C1177.217651,1144.688354 1153.763672,1143.939331 1129.999023,1144.935059 
	C1129.999023,1142.400024 1129.999146,1141.124023 1129.999146,1139.847900 
	C1130.000854,1071.232544 1130.001221,1002.617249 1130.009277,934.001953 
	C1130.009644,931.468262 1129.177246,928.247925 1134.185791,929.110962 
z"/>
<path fill="#FFFEFE" opacity="1.000000" stroke="none" 
	d="
M1529.864868,1289.708740 
	C1522.110229,1311.415039 1509.134033,1328.145386 1487.684204,1336.847290 
	C1454.349243,1350.370972 1418.279053,1333.792603 1408.379272,1299.075684 
	C1398.505737,1264.450806 1402.797363,1230.829834 1423.480713,1200.757568 
	C1447.734375,1165.494141 1494.201294,1156.521973 1530.669800,1178.958496 
	C1533.059204,1180.428467 1534.083374,1181.915283 1534.070068,1184.834961 
	C1533.943970,1212.325806 1534.273682,1239.822144 1533.812134,1267.305908 
	C1533.688599,1274.664551 1531.307251,1281.985107 1529.864868,1289.708740 
z"/>
<path fill="#FFFEFE" opacity="1.000000" stroke="none" 
	d="
M1107.298096,539.103271 
	C1129.561646,533.927124 1149.999512,537.511230 1168.954712,549.344666 
	C1170.497925,550.308105 1171.855957,552.922974 1171.868408,554.780151 
	C1172.053223,582.272400 1172.977539,609.810852 1171.731567,637.247742 
	C1170.364014,667.360352 1157.038452,691.535583 1129.142212,705.161499 
	C1095.249146,721.716553 1056.644409,705.117859 1046.327148,668.951233 
	C1036.604248,634.868286 1041.053467,601.881592 1060.647095,571.842529 
	C1071.612671,555.031128 1087.398193,544.295349 1107.298096,539.103271 
z"/>
<path fill="#FFFEFE" opacity="1.000000" stroke="none" 
	d="
M1866.077637,594.187988 
	C1874.871948,571.126770 1888.947632,553.100342 1911.768921,543.419678 
	C1937.474976,532.515381 1962.464355,534.862854 1986.208374,549.482727 
	C1987.638306,550.363159 1988.870605,552.827026 1988.880859,554.561829 
	C1989.044922,582.387817 1989.939087,610.256287 1988.726562,638.030334 
	C1987.524414,665.562134 1975.255371,688.006653 1951.235474,702.650879 
	C1921.274292,720.917419 1871.327515,712.066345 1861.074219,660.993103 
	C1856.556641,638.489258 1858.471924,616.276306 1866.077637,594.187988 
z"/>
</svg>